<svg preserveAspectRatio="xMidYMid meet" data-bbox="20 19.999 160.001 160.001" viewBox="20 19.999 160.001 160.001" height="200" width="200" xmlns="http://www.w3.org/2000/svg" data-type="color" role="presentation" aria-hidden="true" aria-label=""><defs><style>#comp-m4bw6plm svg [data-color="1"] {fill: #F1FD0C;}</style></defs>
    <g>
        <path d="M122.475 47.139C107.243 34.05 88.716 26.235 72.917 26.235c-6.991 0-13.541 1.458-19.469 4.333-17.602 8.538-29.126 23.382-32.449 41.799-4.006 22.209 4.212 47.221 21.447 65.274 7.807 8.178 17.812 15.684 28.172 21.138 12.549 6.606 25.462 10.097 37.342 10.097 2.758 0 5.508-.185 8.174-.551 9.572-1.312 15.793-4.939 18.49-10.779 4.586-9.93-3.132-22.191-3.463-22.708a1.731 1.731 0 0 0-.296-.375c-.152-.174-1.328-1.609-.919-3.9.415-2.317 2.808-7.079 14.187-12.938 5.187-2.671 8.172-7.041 8.872-12.987 2.163-18.371-19.033-47.621-30.53-57.499zm25.789 56.941c-.51 4.332-2.576 7.374-6.316 9.301-10.186 5.245-15.815 10.807-16.733 16.532-.574 3.58.914 6.389 2.023 7.659.815 1.347 6.317 10.903 3.052 17.973-1.97 4.265-6.951 6.973-14.804 8.05a55.633 55.633 0 0 1-7.526.506c-24.839 0-48.956-16.03-62.061-29.758-16.201-16.971-23.942-40.394-20.202-61.129 2.154-11.938 9.078-28.283 29.834-38.35 5.274-2.558 11.123-3.854 17.386-3.854 14.691 0 32.054 7.383 46.446 19.75 10.97 9.425 30.761 37.525 28.901 53.32z" fill="#FF620B" data-color="1"></path>
        <path d="M105.516 124.225a20.954 20.954 0 0 0-5.274-.682c-7.781 0-14.139 4.345-15.821 10.811-1.039 3.994-.151 8.204 2.5 11.855 2.548 3.509 6.449 6.091 10.984 7.271 1.74.453 3.515.682 5.274.682 7.781 0 14.139-4.345 15.821-10.811 2.098-8.065-3.951-16.645-13.484-19.126zm8.863 17.925c-1.126 4.33-5.628 7.239-11.2 7.239a16.22 16.22 0 0 1-4.072-.528c-3.467-.902-6.423-2.84-8.323-5.456-1.797-2.474-2.416-5.261-1.743-7.847 1.126-4.33 5.628-7.239 11.201-7.239 1.354 0 2.724.178 4.072.528 6.985 1.817 11.501 7.785 10.065 13.303z" fill="#FF620B" data-color="1"></path>
        <path d="M58.996 104.104c-1.39-4.869-5.894-8.27-10.953-8.27-1.056 0-2.11.148-3.133.44a11.324 11.324 0 0 0-6.832 5.422 11.32 11.32 0 0 0-.997 8.665c1.39 4.869 5.894 8.27 10.953 8.27 1.056 0 2.11-.148 3.133-.44a11.324 11.324 0 0 0 6.832-5.422 11.32 11.32 0 0 0 .997-8.665zm-9.14 9.495c-.596.17-1.21.257-1.822.257a6.647 6.647 0 0 1-6.362-4.806 6.575 6.575 0 0 1 .579-5.034 6.575 6.575 0 0 1 3.969-3.15 6.648 6.648 0 0 1 1.822-.257 6.647 6.647 0 0 1 6.362 4.806 6.58 6.58 0 0 1-.579 5.034 6.57 6.57 0 0 1-3.969 3.15z" fill="#FF620B" data-color="1"></path>
        <path d="M67.493 118.39c-1.056 0-2.11.148-3.133.44a11.32 11.32 0 0 0-6.831 5.422 11.32 11.32 0 0 0-.997 8.665c1.39 4.869 5.894 8.27 10.953 8.27 1.056 0 2.11-.148 3.133-.44a11.322 11.322 0 0 0 6.832-5.422 11.32 11.32 0 0 0 .997-8.665c-1.392-4.869-5.896-8.27-10.954-8.27zm1.813 17.765c-.596.17-1.21.257-1.822.257a6.647 6.647 0 0 1-6.362-4.806 6.575 6.575 0 0 1 .579-5.034 6.575 6.575 0 0 1 3.969-3.15 6.648 6.648 0 0 1 1.822-.257 6.647 6.647 0 0 1 6.362 4.806c.486 1.7.28 3.488-.579 5.034a6.575 6.575 0 0 1-3.969 3.15z" fill="#FF620B" data-color="1"></path>
        <path d="M46.431 88.833a11.324 11.324 0 0 0 6.832-5.422 11.32 11.32 0 0 0 .997-8.665c-1.39-4.869-5.894-8.27-10.953-8.27-1.056 0-2.11.148-3.133.44a11.324 11.324 0 0 0-6.832 5.422 11.32 11.32 0 0 0-.997 8.665c1.391 4.869 5.895 8.27 10.953 8.27 1.056.001 2.11-.147 3.133-.44zm-9.495-9.14a6.572 6.572 0 0 1 .58-5.034 6.575 6.575 0 0 1 3.969-3.15 6.648 6.648 0 0 1 1.822-.257 6.647 6.647 0 0 1 6.362 4.806 6.58 6.58 0 0 1-.579 5.034 6.574 6.574 0 0 1-3.97 3.15c-.596.17-1.21.257-1.822.257a6.648 6.648 0 0 1-6.362-4.806z" fill="#FF620B" data-color="1"></path>
        <path d="M58.634 64.598c1.056 0 2.11-.148 3.133-.44a11.32 11.32 0 0 0 6.831-5.422 11.32 11.32 0 0 0 .997-8.665c-1.39-4.869-5.894-8.27-10.953-8.27-1.056 0-2.11.148-3.133.44a11.32 11.32 0 0 0-6.831 5.422 11.32 11.32 0 0 0-.997 8.665c1.391 4.869 5.895 8.27 10.953 8.27zm-1.813-17.766a6.648 6.648 0 0 1 1.822-.257 6.647 6.647 0 0 1 6.362 4.806c.486 1.7.28 3.489-.579 5.034a6.575 6.575 0 0 1-3.969 3.15c-.596.17-1.21.257-1.822.257a6.647 6.647 0 0 1-6.362-4.806 6.576 6.576 0 0 1 .579-5.034 6.579 6.579 0 0 1 3.969-3.15z" fill="#FF620B" data-color="1"></path>
        <path d="M86.887 63.297c1.056 0 2.11-.148 3.133-.44a11.32 11.32 0 0 0 6.831-5.422 11.32 11.32 0 0 0 .997-8.665c-1.39-4.869-5.894-8.27-10.953-8.27-1.056 0-2.11.148-3.133.44a11.32 11.32 0 0 0-6.831 5.422 11.32 11.32 0 0 0-.997 8.665c1.391 4.87 5.895 8.27 10.953 8.27zm-1.813-17.765a6.648 6.648 0 0 1 1.822-.257 6.647 6.647 0 0 1 6.362 4.806c.486 1.7.28 3.489-.579 5.034a6.575 6.575 0 0 1-3.969 3.15c-.596.17-1.21.257-1.822.257a6.647 6.647 0 0 1-6.362-4.806 6.576 6.576 0 0 1 .579-5.034 6.573 6.573 0 0 1 3.969-3.15z" fill="#FF620B" data-color="1"></path>
        <path d="M110.815 55.011c-1.056 0-2.11.148-3.133.44a11.324 11.324 0 0 0-6.832 5.422 11.32 11.32 0 0 0-.997 8.665c1.39 4.869 5.894 8.27 10.953 8.27 1.056 0 2.11-.148 3.133-.44a11.324 11.324 0 0 0 6.832-5.422 11.32 11.32 0 0 0 .997-8.665c-1.391-4.869-5.895-8.27-10.953-8.27zm1.813 17.766c-.596.17-1.21.257-1.822.257a6.647 6.647 0 0 1-6.362-4.806 6.58 6.58 0 0 1 .579-5.034 6.574 6.574 0 0 1 3.97-3.15 6.648 6.648 0 0 1 1.822-.257 6.647 6.647 0 0 1 6.362 4.806 6.575 6.575 0 0 1-.579 5.034 6.587 6.587 0 0 1-3.97 3.15z" fill="#FF620B" data-color="1"></path>
        <path d="M118.167 85.076a11.32 11.32 0 0 0-.997 8.665c1.39 4.869 5.894 8.27 10.953 8.27 1.056 0 2.11-.148 3.133-.44a11.322 11.322 0 0 0 6.832-5.422 11.32 11.32 0 0 0 .997-8.665c-1.39-4.869-5.894-8.27-10.953-8.27-1.056 0-2.11.148-3.133.44a11.325 11.325 0 0 0-6.832 5.422zm8.143-.83a6.616 6.616 0 0 1 1.822-.257 6.647 6.647 0 0 1 6.362 4.806c.486 1.7.28 3.489-.579 5.034a6.574 6.574 0 0 1-3.97 3.15c-.596.17-1.21.257-1.822.257a6.647 6.647 0 0 1-6.362-4.806 6.576 6.576 0 0 1 .579-5.034 6.574 6.574 0 0 1 3.97-3.15z" fill="#FF620B" data-color="1"></path>
        <path d="M167.543 20.26a2.386 2.386 0 0 0-3.464 1.955c-.371 5.112-.891 7.343-2.225 9.548-1.225 2.026-2.645 3.45-4.018 4.827-1.806 1.811-3.674 3.684-4.652 6.597-1.974 5.88 2.604 11.414 5.647 14.292l-2.781 14.654c-.079.418-.045.849.098 1.25l1.731 4.834.871 94.938c.035 3.774 3.134 6.845 6.908 6.845 3.774 0 6.873-3.071 6.908-6.846l.871-94.937 1.731-4.835c.143-.401.177-.832.098-1.25l-2.834-14.935c-.011-.059-.033-.112-.048-.169 3.355-3.933 7.27-9.171 7.597-16.585.59-13.396-11.906-19.913-12.438-20.183zm.248 152.851a2.14 2.14 0 0 1-2.133 2.115 2.141 2.141 0 0 1-2.134-2.114l-.852-92.931h5.972l-.853 92.93zm-4.6-113.004l.015-.077h4.903l.158.831 2.186 11.523-1.081 3.02h-7.429l-1.081-3.02 2.329-12.277zm12.019-19.875c-.292 6.618-4.333 11.263-7.581 14.995l-.024.028h-4.083c-2.468-1.963-7.114-6.673-5.813-10.548.622-1.853 1.895-3.129 3.507-4.745 1.5-1.504 3.2-3.208 4.723-5.727 1.404-2.322 2.089-4.626 2.503-7.63 2.993 2.438 7.061 6.998 6.768 13.627z" fill="#FF620B" data-color="1"></path>
    </g>
</svg>